<?xml version="1.0" encoding="utf-8"?>
<!-- Generator: Adobe Illustrator 23.0.1, SVG Export Plug-In . SVG Version: 6.00 Build 0)  -->
<svg version="1.1" id="Capa_1" xmlns="http://www.w3.org/2000/svg" xmlns:xlink="http://www.w3.org/1999/xlink" x="0px" y="0px"
	 viewBox="0 0 512 512" style="enable-background:new 0 0 512 512;" xml:space="preserve">
<g>
	<g>
		<path d="M253.9,384.6h-0.3c-1.7,7-3.5,15.8-5.4,22.6l-7,24.9h25.9l-7.3-24.9C257.8,400.3,255.7,391.6,253.9,384.6z"/>
		<path d="M362.9,384.3c-5.9,0-9.7,0.5-12,1v76.7c2.3,0.5,5.9,0.5,9.2,0.5c24,0.2,39.7-13,39.7-41.1
			C400,397.2,385.7,384.3,362.9,384.3z"/>
		<path d="M449.3,122.7c0-2.3-0.8-4.7-2.4-6.5L348.2,3.4c0,0,0,0-0.1-0.1c-0.6-0.7-1.3-1.2-2-1.7c-0.2-0.1-0.4-0.3-0.7-0.4
			c-0.6-0.3-1.3-0.6-2-0.8c-0.2-0.1-0.4-0.1-0.5-0.2c-0.8-0.2-1.5-0.3-2.3-0.3H98C87,0,78,9,78,20.1v471.8C78,503,87,512,98,512
			h331.3c11.1,0,20.1-9,20.1-20.1V123.8C449.4,123.4,449.4,123.1,449.3,122.7z M164.8,461.9c8,0,16.9-1.7,22.1-3.8l4,20.7
			c-4.9,2.4-15.8,5-30.1,5c-40.6,0-61.4-25.2-61.4-58.7c0-40,28.5-62.3,64-62.3c13.7,0,24.2,2.8,28.9,5.2l-5.4,21.1
			c-5.4-2.3-12.9-4.3-22.3-4.3c-21.1,0-37.4,12.7-37.4,38.8C127.2,447.1,141.2,461.9,164.8,461.9z M280.1,482.1L271,452h-33.6
			l-8.3,30.1h-27.5l35.8-117.3h34.8l36.4,117.3H280.1z M408.5,468.2c-12.4,10.3-31.2,15.1-54.1,15.1c-13.7,0-23.5-0.9-30.1-1.7
			V366.4c9.7-1.6,22.5-2.4,35.9-2.4c22.3,0,36.7,4,48,12.5c12.2,9.1,19.8,23.5,19.8,44.2C428,443.1,419.8,458.6,408.5,468.2z
			 M98,340.9V20.1h232.6v102.7c0,5.5,4.5,10,10,10h88.7l0,208.1L98,340.9L98,340.9z"/>
		<path d="M310,249.4l-20.5-55.8h11.4v9h5.6V179h-5.6v9h-13.4l-13.3-36.1c1.4-3.2,2.2-6.7,2.2-10.5c0-13.1-9.8-23.8-22.4-25.6V85.1
			h-7v30.7c-12.7,1.7-22.4,12.4-22.4,25.6c0,5.3,1.6,10.1,4.3,14.2L216.9,188h-14v-9h-5.6v23.6h5.6v-9h11.9l-20.5,55.8l1.3,15.7
			l-7.6,34l17.2-30.1l12.3-11.6l34.6-88.6l34.6,88.6l12.3,11.6l17.2,30.1l-7.6-34L310,249.4z M250.9,159.4c-9.9,0-17.9-8-17.9-17.9
			c0-9.9,8-17.9,17.9-17.9c9.9,0,17.9,8,17.9,17.9C268.8,151.4,260.8,159.4,250.9,159.4z"/>
		<circle cx="250.9" cy="141.7" r="8.8"/>
	</g>
</g>
</svg>
