<?xml version="1.0" encoding="utf-8"?>
<!-- Generator: Adobe Illustrator 23.0.1, SVG Export Plug-In . SVG Version: 6.00 Build 0)  -->
<svg version="1.1" id="Capa_1" xmlns="http://www.w3.org/2000/svg" xmlns:xlink="http://www.w3.org/1999/xlink" x="0px" y="0px"
	 viewBox="0 0 550.8 550.8" style="enable-background:new 0 0 550.8 550.8;" xml:space="preserve">
<style type="text/css">
	.st0{fill:#EDF4FC;}
	.st1{fill:#FC657E;}
	.st2{fill:#F5C84C;}
	.st3{fill:#87D147;}
	.st4{fill:#70D6F9;}
</style>
<g id="Layer_27">
	<g>
		<g>
			<g>
				<path class="st0" d="M440.1,365.1V53c0-14.6-11.9-26.5-26.5-26.5H198.4L90.4,134.6v230.4H440.1z"/>
			</g>
		</g>
		<g>
			<g>
				<path class="st1" d="M90.4,365.1v110.5c0,14.6,11.9,26.5,26.5,26.5h296.8c14.6,0,26.5-11.9,26.5-26.5V365.1H90.4z"/>
			</g>
		</g>
		<g>
			<g>
				<path d="M255.5,399.1h-8.7c-0.6,0-1.1,0.5-1.1,1.1v50.3c0,5.5-2.8,9-8.6,9c-6.8,0-9.5-4.7-9.5-11.6c0-0.6-0.5-1.1-1.1-1.1h-8.7
					c-0.6,0-1.1,0.5-1.1,1.1c0,13.9,8.1,21.7,20.8,21.7c12.2,0,19.1-7.6,19.1-19.1v-50.3C256.6,399.5,256.1,399.1,255.5,399.1z"/>
			</g>
		</g>
		<g>
			<g>
				<path d="M279,422.4c-3.4-4-3.1-15.1,8.7-15.1c7.1,0,11.3,4.4,12.2,9.3c0.1,0.5,0.5,0.9,1.1,0.9h9.4c0.6,0,1.1-0.6,1.1-1.2
					c-1.3-10.1-9.4-18.1-23.7-18.1c-7.7,0-15.3,2.5-19.4,8.9c-4,6.4-3.3,15.6,0.2,20.4c9.4,12.8,32.9,8.4,32.9,23
					c0,5.6-3.5,9.9-10.8,9.9c-7.9,0-12.7-5.2-13.2-10.9c-0.1-0.5-0.5-1-1.1-1H267c-0.6,0-1.1,0.5-1.1,1.2
					c1.1,12.3,11.9,19.9,25,19.9c14.3,0,22-8.9,22-19.3C313,427.9,287,431.9,279,422.4L279,422.4z"/>
			</g>
		</g>
		<g>
			<g>
				<path d="M413.6,507.4H116.8c-17.5,0-31.8-14.3-31.8-31.8V365.1c0-3,2.4-5.4,5.4-5.4c3,0,5.4,2.4,5.4,5.4v110.5
					c0,11.6,9.5,21.1,21.1,21.1h296.8c11.6,0,21.1-9.5,21.1-21.1V365.1c0-3,2.4-5.4,5.4-5.4c3,0,5.4,2.4,5.4,5.4v110.5
					C445.5,493.1,431.2,507.4,413.6,507.4z"/>
			</g>
		</g>
		<g>
			<g>
				<path class="st1" d="M90.4,134.6H172c14.6,0,26.5-11.9,26.5-26.5V26.5L90.4,134.6z"/>
			</g>
		</g>
		<g>
			<g>
				<path class="st2" d="M496.7,282.6c-8.9,1.7-15.9,8.5-17.6,17.2c-0.1,0.4-0.7,0.4-0.8,0c-1.7-8.7-8.7-15.6-17.6-17.2
					c-0.4-0.1-0.4-0.7,0-0.8c8.9-1.7,15.9-8.5,17.6-17.2c0.1-0.4,0.7-0.4,0.8,0c1.7,8.7,8.7,15.6,17.6,17.2
					C497.1,281.9,497.1,282.5,496.7,282.6z"/>
			</g>
		</g>
		<g>
			<g>
				<path class="st1" d="M272.6,537.1c-6.2,1.2-11.2,6-12.3,12.1c-0.1,0.3-0.5,0.3-0.5,0c-1.2-6.1-6.1-10.9-12.3-12.1
					c-0.3-0.1-0.3-0.5,0-0.5c6.2-1.2,11.2-6,12.3-12.1c0.1-0.3,0.5-0.3,0.5,0c1.2,6.1,6.1,10.9,12.3,12.1
					C272.9,536.7,272.9,537.1,272.6,537.1z"/>
			</g>
		</g>
		<g>
			<g>
				<circle class="st1" cx="175.2" cy="7.8" r="7.2"/>
			</g>
		</g>
		<g>
			<g>
				<circle class="st3" cx="468.9" cy="220.1" r="7.2"/>
			</g>
		</g>
		<g>
			<g>
				<path class="st4" d="M133.3,23.6h-3.9v-3.9c0-2.9-2.4-5.3-5.3-5.3c-2.9,0-5.3,2.4-5.3,5.3v3.9h-3.9c-2.9,0-5.3,2.4-5.3,5.3
					s2.4,5.3,5.3,5.3h3.9v3.9c0,2.9,2.4,5.3,5.3,5.3c2.9,0,5.3-2.4,5.3-5.3v-3.9h3.9c2.9,0,5.3-2.4,5.3-5.3S136.2,23.6,133.3,23.6z"
					/>
			</g>
		</g>
		<g>
			<g>
				<circle class="st2" cx="203.9" cy="527.2" r="7.2"/>
			</g>
		</g>
		<g>
			<g>
				<path d="M440.1,370.4H90.4c-3,0-5.4-2.4-5.4-5.4V134.6c0-1.4,0.6-2.8,1.6-3.8L194.6,22.8c1-1,2.4-1.6,3.8-1.6h215.2
					c17.5,0,31.8,14.3,31.8,31.8v312.1C445.5,368,443.1,370.4,440.1,370.4z M95.7,359.7h339V53c0-11.6-9.5-21.1-21.1-21.1h-213
					L95.7,136.8L95.7,359.7z"/>
			</g>
		</g>
		<g>
			<g>
				<path d="M172,140h-80c-3,0-5.4-2.4-5.4-5.4c0-3,2.4-5.4,5.4-5.4h80c11.6,0,21.1-9.5,21.1-21.1V28.7c0-3,2.4-5.4,5.4-5.4
					s5.4,2.4,5.4,5.4v79.5C203.8,125.7,189.5,140,172,140z"/>
			</g>
		</g>
		<g>
			<g>
				<path class="st1" d="M354,228l-45.9-34.5c-4.6-3.4-11.1-2.5-14.5,2.1c-3.4,4.6-2.5,11.1,2.1,14.5l34.8,26.2l-34.8,26.2
					c-4.6,3.4-5.5,9.9-2.1,14.5c3.4,4.6,10,5.5,14.5,2.1l45.9-34.5C359.5,240.4,359.5,232.1,354,228L354,228z"/>
			</g>
		</g>
		<g>
			<g>
				<path class="st1" d="M236.7,262.5l-34.8-26.2l34.8-26.2c4.6-3.4,5.5-9.9,2.1-14.5c-3.4-4.6-9.9-5.5-14.5-2.1L178.4,228
					c-2.6,2-4.1,5-4.1,8.3c0,3.3,1.5,6.3,4.1,8.3l45.9,34.5c4.6,3.4,11.1,2.5,14.5-2.1C242.2,272.4,241.3,265.9,236.7,262.5
					L236.7,262.5z"/>
			</g>
		</g>
		<g>
			<g>
				<path class="st1" d="M285.6,180.2c-5.3-1.9-11.3,0.8-13.2,6.3l-32.8,92.6c-1.9,5.4,0.9,11.3,6.3,13.2c5.4,1.9,11.3-0.9,13.2-6.3
					l32.8-92.6C293.9,188,291,182.1,285.6,180.2z"/>
			</g>
		</g>
		<g>
			<g>
				<path d="M301.9,286.4c-4.8,0-9.5-2.2-12.6-6.3c-5.2-6.9-3.8-16.8,3.1-22l29.1-21.9l-29.1-21.9c-3.4-2.5-5.5-6.2-6.1-10.4
					s0.5-8.3,3-11.6c2.5-3.4,6.2-5.5,10.4-6.1c4.1-0.6,8.3,0.5,11.6,3l45.9,34.5c4,3,6.3,7.6,6.3,12.6s-2.3,9.6-6.3,12.6l-45.9,34.5
					C308.5,285.4,305.2,286.4,301.9,286.4L301.9,286.4z M301.9,196.8c-0.2,0-0.5,0-0.7,0c-1.3,0.2-2.5,0.9-3.3,1.9
					c-0.8,1.1-1.1,2.4-0.9,3.7c0.2,1.3,0.9,2.5,1.9,3.3l34.8,26.2c1.3,1,2.1,2.6,2.1,4.3c0,1.7-0.8,3.3-2.1,4.3l-34.8,26.2
					c-2.2,1.7-2.6,4.8-1,7c1.7,2.2,4.8,2.6,7,1l45.9-34.5c1.3-1,2-2.4,2-4s-0.7-3-2-4l-45.9-34.5C304,197.2,303,196.8,301.9,196.8
					L301.9,196.8z"/>
			</g>
		</g>
		<g>
			<g>
				<path d="M230.4,286.5c-3.4,0-6.7-1.1-9.4-3.2l-45.9-34.5c-4-3-6.3-7.6-6.3-12.6c0-5,2.3-9.6,6.3-12.6l45.9-34.5
					c3.4-2.5,7.5-3.6,11.7-3c4.2,0.6,7.8,2.8,10.4,6.1c2.5,3.4,3.6,7.5,3,11.7c-0.6,4.2-2.8,7.8-6.1,10.4l-29.1,21.9l29.1,21.9
					c3.4,2.5,5.5,6.2,6.1,10.4c0.6,4.2-0.5,8.3-3,11.6c-2.5,3.4-6.2,5.5-10.4,6.1C231.9,286.4,231.2,286.5,230.4,286.5z
					 M230.5,196.8c-1.1,0-2.1,0.3-3,1l-45.9,34.5c-1.3,1-2,2.4-2,4c0,1.6,0.7,3,2,4l45.9,34.5c1.1,0.8,2.4,1.1,3.7,1
					c1.3-0.2,2.5-0.9,3.3-1.9c0.8-1.1,1.1-2.4,1-3.7s-0.9-2.5-1.9-3.3l-34.8-26.2c-1.3-1-2.1-2.6-2.1-4.3c0-1.7,0.8-3.3,2.1-4.3
					l34.8-26.2c1.1-0.8,1.8-2,1.9-3.3c0.2-1.3-0.2-2.6-1-3.7c-0.8-1.1-2-1.8-3.3-1.9C230.9,196.8,230.7,196.8,230.5,196.8
					L230.5,196.8z"/>
			</g>
		</g>
		<g>
			<g>
				<path d="M249.4,298.3c-1.7,0-3.5-0.3-5.2-0.9c-8.2-2.9-12.5-11.9-9.6-20.1l32.8-92.6c2.9-8.2,11.9-12.5,20.1-9.6
					s12.5,11.9,9.6,20.1l-32.8,92.6C261.9,294.3,255.8,298.3,249.4,298.3z M282.2,185c-2.1,0-4,1.3-4.7,3.3l-32.8,92.6
					c-0.9,2.6,0.4,5.5,3,6.4c2.6,0.9,5.5-0.4,6.4-3l32.8-92.6c0.9-2.6-0.4-5.5-3-6.4C283.3,185.1,282.7,185,282.2,185z"/>
			</g>
		</g>
	</g>
</g>
</svg>
